<svg xmlns="http://www.w3.org/2000/svg" viewBox="0 0 760 500" font-family="-apple-system,BlinkMacSystemFont,'Segoe UI',sans-serif">
  <defs>
    <filter id="shadow" x="-10%" y="-10%" width="120%" height="125%"><feDropShadow dx="0" dy="16" stdDeviation="22" flood-color="#09101e" flood-opacity=".28"/></filter>
    <linearGradient id="canvas" x1="0" y1="0" x2="1" y2="1"><stop stop-color="#e8edf6"/><stop offset="1" stop-color="#d8e1ef"/></linearGradient>
    <linearGradient id="hero" x1="0" y1="0" x2="1" y2="1"><stop stop-color="#24205b"/><stop offset="1" stop-color="#46378d"/></linearGradient>
  </defs>
  <rect width="760" height="500" rx="18" fill="url(#canvas)"/>
  <rect x="44" y="36" width="672" height="414" rx="15" fill="#f8fafc" filter="url(#shadow)"/>
  <path d="M59 36h642a15 15 0 0 1 15 15v24H44V51a15 15 0 0 1 15-15Z" fill="#edf1f7"/>
  <circle cx="67" cy="55" r="5" fill="#fb7185"/><circle cx="84" cy="55" r="5" fill="#fbbf24"/><circle cx="101" cy="55" r="5" fill="#4ade80"/>
  <text x="380" y="59" text-anchor="middle" font-size="12" font-weight="600" fill="#667085">NoCloud Desktop</text>
  <rect x="44" y="75" width="178" height="375" rx="0 0 0 15" fill="#101827"/>
  <path d="M67 101h23a8 8 0 0 0 .7-16 11 11 0 0 0-21-3.2 8 8 0 0 0-2.7 19.2Z" fill="none" stroke="#f8fafc" stroke-width="2.4"/>
  <path d="m62 105 34-30" stroke="#fb7185" stroke-width="3.5" stroke-linecap="round"/>
  <text x="105" y="101" font-size="16" font-weight="750" fill="#f8fafc">NoCloud</text>
  <text x="61" y="134" font-size="9" font-weight="800" letter-spacing="1.2" fill="#7f8ca4">OVERVIEW</text>
  <rect x="56" y="145" width="154" height="38" rx="8" fill="#263246"/>
  <path d="M70 161h12v10H70zM72 158h8" fill="none" stroke="#bcd0ff" stroke-width="1.6" stroke-linejoin="round"/>
  <text x="94" y="169" font-size="12" font-weight="700" fill="#fff">Home</text>
  <text x="61" y="207" font-size="9" font-weight="800" letter-spacing="1.2" fill="#7f8ca4">YOUR ARCHIVE</text>
  <g fill="#aebbd0" font-size="12" font-weight="600"><text x="94" y="240">People</text><text x="94" y="277">Photos</text><text x="94" y="314">Health</text></g>
  <circle cx="76" cy="236" r="8" fill="#0f766e"/><circle cx="73.5" cy="234" r="2.3" fill="#d1fae5"/><circle cx="79.5" cy="235" r="2" fill="#fde68a"/>
  <rect x="68" y="263" width="16" height="16" rx="5" fill="#0891b2"/><circle cx="73" cy="268" r="2" fill="#fff"/><path d="m70 276 4-4 3 3 2-2 3 3" fill="none" stroke="#fff" stroke-width="1.5"/>
  <rect x="68" y="300" width="16" height="16" rx="5" fill="#be123c"/><path d="M76 312s-5-3.5-5-7a2.7 2.7 0 0 1 5-1.2 2.7 2.7 0 0 1 5 1.2c0 3.5-5 7-5 7Z" fill="#fecdd3"/>
  <text x="61" y="350" font-size="9" font-weight="800" letter-spacing="1.2" fill="#7f8ca4">SYSTEM</text>
  <path d="M70 364h13M70 369h13M70 374h13" stroke="#aebbd0" stroke-width="1.8" stroke-linecap="round"/><circle cx="75" cy="364" r="2.5" fill="#fbbf24"/><circle cx="80" cy="369" r="2.5" fill="#67e8f9"/><circle cx="74" cy="374" r="2.5" fill="#f9a8d4"/>
  <text x="94" y="373" font-size="12" font-weight="600" fill="#aebbd0">Settings</text>
  <path d="M61 407h148" stroke="#263246"/><circle cx="75" cy="426" r="10" fill="#64748b"/><text x="94" y="430" font-size="11" font-weight="600" fill="#c8d2e3">Local profile</text>
  <text x="250" y="111" font-size="22" font-weight="750" fill="#18233a">Good evening</text>
  <text x="250" y="132" font-size="12" fill="#667085">Your archive is private, organised and ready to grow.</text>
  <circle cx="666" cy="106" r="17" fill="#fff" stroke="#d6deeb"/><circle cx="666" cy="106" r="4" fill="none" stroke="#46546b" stroke-width="1.5"/><path d="M666 98v2M666 112v2M658 106h2M672 106h2M660.5 100.5l1.5 1.5M670 110l1.5 1.5M671.5 100.5l-1.5 1.5M662 110l-1.5 1.5" stroke="#46546b" stroke-width="1.3" stroke-linecap="round"/>
  <circle cx="706" cy="106" r="17" fill="#fff" stroke="#d6deeb"/><path d="M704 99h-5v14h5M707 102l4 4-4 4M703 106h8" fill="none" stroke="#46546b" stroke-width="1.6" stroke-linecap="round" stroke-linejoin="round"/>
  <rect x="250" y="154" width="434" height="104" rx="12" fill="url(#hero)"/>
  <text x="272" y="181" font-size="12" font-weight="750" fill="#c7d2fe">YOUR NEXT STEP</text>
  <text x="272" y="207" font-size="19" font-weight="750" fill="#fff">Bring in your first memories</text>
  <text x="272" y="228" font-size="12" fill="#d8d4fe">Drop files in Sink and follow their progress here.</text>
  <rect x="272" y="238" width="94" height="28" rx="7" fill="#fff"/><text x="319" y="256" text-anchor="middle" font-size="11" font-weight="750" fill="#3f3582">Open Sink</text>
  <path d="M610 178a26 26 0 0 1 38 36l-15 16-34-29Z" fill="#8bdbed" opacity=".9"/><path d="M610 178c8-9 22-10 31-2l-8 9c-5-5-12-4-17 2Z" fill="#f4d36d"/>
  <text x="250" y="290" font-size="11" font-weight="750" letter-spacing=".8" fill="#667085">YOUR SPACE</text>
  <g>
    <rect x="250" y="303" width="133" height="108" rx="10" fill="#fff" stroke="#dce4ef"/>
    <rect x="265" y="318" width="33" height="33" rx="9" fill="#0f766e"/><circle cx="277" cy="330" r="5" fill="#d1fae5"/><circle cx="288" cy="332" r="4.5" fill="#fde68a"/>
    <text x="265" y="371" font-size="14" font-weight="750" fill="#263247">Family</text><text x="265" y="391" font-size="11" fill="#667085">1 profile to complete</text>
  </g>
  <g>
    <rect x="400" y="303" width="133" height="108" rx="10" fill="#fff" stroke="#dce4ef"/>
    <rect x="415" y="318" width="33" height="33" rx="9" fill="#0891b2"/><circle cx="425" cy="328" r="3.5" fill="#fff"/><path d="m419 344 8-8 6 5 4-5 6 8" fill="none" stroke="#fff" stroke-width="2"/>
    <text x="415" y="371" font-size="14" font-weight="750" fill="#263247">Photos</text><text x="415" y="391" font-size="11" fill="#667085">Ready to import</text>
  </g>
  <g>
    <rect x="550" y="303" width="134" height="108" rx="10" fill="#fff" stroke="#dce4ef"/>
    <rect x="565" y="318" width="33" height="33" rx="9" fill="#be123c"/><path d="M581.5 343s-10-6.5-10-12a5 5 0 0 1 9.5-2.2 5 5 0 0 1 9.5 2.2c0 5.5-9 12-9 12Z" fill="#fecdd3"/>
    <text x="565" y="371" font-size="14" font-weight="750" fill="#263247">Health</text><text x="565" y="391" font-size="11" fill="#667085">Connect a source</text>
  </g>
  <text x="380" y="480" text-anchor="middle" font-size="12" fill="#667085">The same private portal, in a focused native window.</text>
</svg>
